<?xml version="1.0" encoding="utf-8"?>
<!-- Generator: Adobe Illustrator 23.0.3, SVG Export Plug-In . SVG Version: 6.00 Build 0)  -->
<svg version="1.1" id="Warstwa_1" xmlns="http://www.w3.org/2000/svg" xmlns:xlink="http://www.w3.org/1999/xlink" x="0px" y="0px"
	 viewBox="0 0 56.7 56.7" style="enable-background:new 0 0 56.7 56.7;" xml:space="preserve">
<style type="text/css">
	.st0{fill:#EDF9F2;}
	.st1{fill-rule:evenodd;clip-rule:evenodd;fill:#47BF7C;}
	.st2{fill:#0165FF;}
	.st3{fill-rule:evenodd;clip-rule:evenodd;fill:#FFFFFF;}
	.st4{fill:#F4F5F7;}
	.st5{fill-rule:evenodd;clip-rule:evenodd;fill:#AEB5C1;}
</style>
<path class="st2" d="M56.7,49c0,4.2-3.4,7.7-7.7,7.7H7.6C3.4,56.7,0,53.2,0,49V7.6C0,3.4,3.4,0,7.6,0H49c4.2,0,7.7,3.4,7.7,7.7V49z"
	/>
<path class="st3" d="M42,28.9c-0.2,0.9-0.8,1.6-1.5,2.2c-3.3,3.3-6.7,6.7-10,10c-0.9,0.9-2,1.3-3.2,0.9c-1.3-0.4-2-1.4-2.1-2.7
	c-0.1-0.9,0.3-1.8,1-2.4c1.7-1.7,3.3-3.3,5-5c0.1-0.1,0.2-0.3,0.4-0.5c-0.3,0-0.5,0-0.7,0c-11.3,0-1.5,0-12.9,0
	c-1.6,0-2.9-0.9-3.3-2.2c0-0.1-0.1-0.1-0.1-0.2c0-0.4,0-0.9,0-1.3c0.3-0.6,0.6-1.3,1.1-1.7c0.6-0.5,1.2-0.7,2-0.7
	c11.4,0,1.7,0,13.1,0c0.2,0,0.4,0,0.8,0c-0.2-0.2-0.3-0.4-0.4-0.5c-1.7-1.7-3.4-3.4-5-5c-1.6-1.6-1.1-4.1,0.9-5
	c1.1-0.5,2.4-0.2,3.3,0.6c3.6,3.6,7.2,7.2,10.8,10.8c0.4,0.4,0.6,0.9,0.8,1.4C42,28.1,42,28.5,42,28.9z"/>
</svg>
