<?xml version="1.0" encoding="utf-8"?>
<!-- Generator: Adobe Illustrator 23.0.3, SVG Export Plug-In . SVG Version: 6.00 Build 0)  -->
<svg version="1.1" id="Warstwa_1" xmlns="http://www.w3.org/2000/svg" xmlns:xlink="http://www.w3.org/1999/xlink" x="0px" y="0px"
	 viewBox="0 0 56.7 56.7" style="enable-background:new 0 0 56.7 56.7;" xml:space="preserve">
<style type="text/css">
	.st0{fill:#EDF9F2;}
	.st1{fill-rule:evenodd;clip-rule:evenodd;fill:#47BF7C;}
	.st2{fill:#0165FF;}
	.st3{fill-rule:evenodd;clip-rule:evenodd;fill:#FFFFFF;}
	.st4{fill:#F4F5F7;}
	.st5{fill-rule:evenodd;clip-rule:evenodd;fill:#AEB5C1;}
</style>
<path class="st0" d="M56.6,48.9c0,4.2-3.4,7.6-7.6,7.6H7.6c-4.2,0-7.6-3.4-7.6-7.6V7.6C0,3.4,3.4,0,7.6,0h41.3
	c4.2,0,7.6,3.4,7.6,7.6V48.9z"/>
<path class="st1" d="M13.8,30.7c-0.2-1.8,0.4-3.3,1.9-4.2c1.5-1,3.2-1,4.7-0.1c1.2,0.8,2.3,1.7,3.5,2.6c1.1,0.8,0.8,0.9,1.8-0.2
	c3.1-3.5,6.2-7,9.2-10.5c1.1-1.2,2.4-1.9,4-1.7c1.7,0.2,2.9,1.2,3.6,2.8c0.6,1.6,0.3,3.1-0.8,4.3c-4.3,4.9-8.5,9.8-12.8,14.6
	c-1.8,2.1-4.1,2.3-6.3,0.7c-2.3-1.7-4.6-3.5-7-5.2C14.6,33,13.9,32,13.8,30.7z"/>
</svg>
