<?xml version="1.0" encoding="utf-8"?>
<!-- Generator: Adobe Illustrator 23.0.3, SVG Export Plug-In . SVG Version: 6.00 Build 0)  -->
<svg version="1.1" id="Warstwa_1" xmlns="http://www.w3.org/2000/svg" xmlns:xlink="http://www.w3.org/1999/xlink" x="0px" y="0px"
	 viewBox="0 0 56.7 56.7" style="enable-background:new 0 0 56.7 56.7;" xml:space="preserve">
<style type="text/css">
	.st0{fill:#EDF9F2;}
	.st1{fill-rule:evenodd;clip-rule:evenodd;fill:#47BF7C;}
	.st2{fill:#0165FF;}
	.st3{fill-rule:evenodd;clip-rule:evenodd;fill:#FFFFFF;}
	.st4{fill:#F4F5F7;}
	.st5{fill-rule:evenodd;clip-rule:evenodd;fill:#AEB5C1;}
</style>
<path class="st4" d="M56.7,49.1c0,4.2-3.4,7.7-7.7,7.7H7.7c-4.2,0-7.7-3.4-7.7-7.7V7.7C0,3.4,3.4,0,7.7,0h41.4
	c4.2,0,7.7,3.4,7.7,7.7V49.1z"/>
<path class="st5" d="M28.4,45.9c-3.1,0-6.2-0.1-9.4,0c-2.3,0.1-4.1-1.5-4-4c0-3.8,0-7.6,0-11.3c0-2,0.8-3.1,2.6-3.8
	c0.2-0.1,0.3-0.4,0.3-0.6c0-1.6,0-3.2,0-4.8c0-5,3.3-9.1,8.1-10.3c5.7-1.4,11.6,2.5,12.6,8.2c0.1,0.8,0.2,1.5,0.2,2.3
	c0,1.3,0,2.6,0,3.9c0,0.8,0.1,1.2,0.9,1.6c1.4,0.6,2,1.8,2,3.3c0,4,0,8,0,12c0,2.2-1.6,3.7-3.8,3.7C34.7,45.9,31.5,45.9,28.4,45.9z
	 M23.4,26.5c3.3,0,6.6,0,9.9,0c0-2.1,0.1-4.1,0-6.1c-0.2-2.4-2.5-4.2-4.9-4.2c-2.4,0-4.7,1.8-4.9,4.2C23.3,22.4,23.4,24.4,23.4,26.5
	C23.4,26.5,23.4,26.5,23.4,26.5z M26.7,41.9c1.2,0,2.2,0,3.3,0c0-1,0-2,0-3c0-0.4,0.1-0.6,0.4-0.9c0.9-0.7,1.3-1.7,1.2-2.8
	c-0.1-1.5-1.3-2.8-2.7-3c-1.6-0.3-3,0.5-3.6,1.9c-0.6,1.4-0.2,2.9,1,3.9c0.2,0.2,0.3,0.5,0.4,0.8C26.7,39.8,26.7,40.8,26.7,41.9z"/>
</svg>
